<svg xmlns="http://www.w3.org/2000/svg" xmlns:xlink="http://www.w3.org/1999/xlink" width="25" height="25"
    viewBox="0 0 98 98" fill="#000" style="enable-background:new 0 0 100 100;" >
    <g>
        <path
            d="M20.1,67.4c-1.3-2.1-4-2.9-6.1-1.6c-2.1,1.3-2.9,4-1.6,6.1c0.8,1.4,2.3,2.2,3.9,2.2c0.8,0,1.5-0.2,2.3-0.6   C20.6,72.3,21.3,69.5,20.1,67.4z" />
        <path
            d="M50.1,84.6c-2.5,0-4.5,2-4.5,4.5c0,2.5,2,4.5,4.5,4.5c0,0,0,0,0,0c2.5,0,4.5-2,4.5-4.5C54.6,86.6,52.6,84.6,50.1,84.6z" />
        <path
            d="M80,67.3c-1.2,2.1-0.5,4.9,1.7,6.1c0.7,0.4,1.5,0.6,2.3,0.6c1.5,0,3.1-0.8,3.9-2.3c1.2-2.1,0.5-4.9-1.6-6.1   C84,64.4,81.2,65.1,80,67.3z" />
        <path
            d="M32.8,80c-2.2-1.2-4.9-0.5-6.1,1.7c-1.2,2.2-0.5,4.9,1.6,6.1c0.7,0.4,1.5,0.6,2.3,0.6c1.5,0,3.1-0.8,3.9-2.3   C35.7,84,34.9,81.3,32.8,80z" />
        <path d="M84.6,50c0,2.5,2,4.5,4.5,4.5c2.5,0,4.5-2,4.5-4.5c0-2.5-2-4.5-4.5-4.5C86.6,45.5,84.6,47.5,84.6,50z" />
        <path
            d="M83.9,34.9c0.8,0,1.5-0.2,2.3-0.6c2.1-1.3,2.9-4,1.6-6.2c-1.3-2.1-4-2.9-6.1-1.6c-2.1,1.2-2.9,4-1.6,6.1   C80.8,34.1,82.3,34.9,83.9,34.9z" />
        <path
            d="M67.3,20c0.7,0.4,1.5,0.6,2.3,0.6c1.6,0,3.1-0.8,3.9-2.2c1.3-2.1,0.5-4.9-1.6-6.1c-2.1-1.3-4.9-0.5-6.1,1.6   C64.4,16,65.2,18.8,67.3,20z" />
        <path
            d="M73.5,81.6c-1.3-2.2-4-2.9-6.1-1.6c-2.1,1.3-2.9,4-1.6,6.2c0.8,1.4,2.4,2.2,3.9,2.2c0.8,0,1.5-0.2,2.3-0.6c0,0,0,0,0,0   C74,86.5,74.8,83.7,73.5,81.6z" />
        <path
            d="M10.9,54.5c2.5,0,4.5-2,4.5-4.5c0-19.1,15.5-34.6,34.6-34.6c2.5,0,4.5-2,4.5-4.5s-2-4.5-4.5-4.5C26,6.4,6.4,26,6.4,50   C6.4,52.5,8.4,54.5,10.9,54.5z" />
    </g>
</svg>